<svg width="44" height="54" viewBox="0 0 44 54" fill="none" xmlns="http://www.w3.org/2000/svg">
<path d="M29.7782 21.0282C31.8411 18.9653 33 16.1674 33 13.25C33 10.3326 31.8411 7.53473 29.7782 5.47182C27.7153 3.40892 24.9174 2.25 22 2.25C19.0826 2.25 16.2847 3.40892 14.2218 5.47182C12.1589 7.53473 11 10.3326 11 13.25C11 16.1674 12.1589 18.9653 14.2218 21.0282C16.2847 23.0911 19.0826 24.25 22 24.25C24.9174 24.25 27.7153 23.0911 29.7782 21.0282Z" stroke="#3C3B6E" stroke-width="4" stroke-linecap="round" stroke-linejoin="round"/>
<path d="M8.38819 38.1382C11.9983 34.5281 16.8946 32.5 22 32.5C27.1054 32.5 32.0017 34.5281 35.6118 38.1382C39.2219 41.7483 41.25 46.6446 41.25 51.75H2.75C2.75 46.6446 4.77812 41.7483 8.38819 38.1382Z" stroke="#3C3B6E" stroke-width="4" stroke-linecap="round" stroke-linejoin="round"/>
</svg>
